<svg width="129" height="30" viewBox="0 0 129 30" fill="none" xmlns="http://www.w3.org/2000/svg">
<path fill-rule="evenodd" clip-rule="evenodd" d="M16.127 2.29372C21.0683 -0.335566 25.7047 -0.819537 28.207 1.44314L28.3857 1.61306C30.6276 3.85491 30.452 8.00134 28.3555 12.5584L28.3857 12.5144C28.3778 12.5338 27.7084 14.1815 27.7168 15.0955C27.7225 15.695 28.0294 16.6266 28.2256 17.1629C30.4447 21.829 30.6742 26.0999 28.3867 28.3875L28.208 28.5574C25.7068 30.8194 21.0739 30.3352 16.1348 27.7088C17.447 26.8537 18.9451 25.7826 19.7236 25.1824C20.1181 25.3456 20.5042 25.4895 20.8799 25.6131C24.0768 26.6643 25.377 25.9886 25.6826 25.6834C25.9877 25.3782 26.6647 24.0782 25.6133 20.8806C25.5545 20.702 25.4906 20.5208 25.4229 20.3377C25.2668 20.1704 24.9166 19.8767 24.3701 19.8767C23.6085 19.8767 23.0362 20.4451 23.0313 20.45L23.0908 20.3621C22.6651 20.8337 22.2214 21.3008 21.7607 21.7615C20.7095 22.8127 19.6235 23.7718 18.5264 24.6375C18.5293 24.6389 18.5323 24.6409 18.5352 24.6424C18.4835 24.6806 18.4295 24.7186 18.375 24.7586C17.2881 25.6064 16.189 26.3587 15.0977 27.0115C15.0662 27.0314 15.0359 27.0525 15.0049 27.072C15.0034 27.0711 15.0015 27.07 15 27.0691C9.64531 30.2441 4.48414 30.9918 1.79199 28.5574L1.61231 28.3865C-0.673885 26.0995 -0.445731 21.8307 1.77149 17.1668C1.96764 16.6312 2.27753 15.6966 2.28321 15.0955C2.29162 14.1826 1.62374 12.5377 1.61426 12.5144L1.64356 12.5584C-0.452904 8.00186 -0.628197 3.85591 1.61328 1.61403L1.79199 1.44314C5.05198 -1.50495 11.9336 0.210463 18.3936 5.25661C18.4407 5.29105 18.4879 5.32382 18.5332 5.3572C18.5307 5.35842 18.5279 5.3589 18.5254 5.36013C19.6233 6.22625 20.7098 7.18713 21.7617 8.23903L22.4414 8.93728C22.665 9.17259 22.884 9.40935 23.0986 9.64724L23.0313 9.55056C23.0352 9.55447 23.6078 10.1238 24.3701 10.1238C24.915 10.1238 25.2642 9.83132 25.4209 9.66384C25.4889 9.48018 25.5534 9.29907 25.6123 9.11989C26.6639 5.92184 25.9867 4.62223 25.6816 4.31716C25.3755 4.01179 24.0751 3.33637 20.8789 4.38747C20.5036 4.51092 20.1176 4.65416 19.7236 4.81716C18.8379 4.13555 17.2001 2.99282 16.127 2.29372ZM9.12012 4.38747C5.9223 3.33591 4.62258 4.01303 4.31738 4.31814C4.01216 4.62378 3.33627 5.92367 4.3877 9.12087C4.44647 9.29956 4.50939 9.4807 4.57715 9.66384C4.7335 9.83118 5.08408 10.1238 5.62988 10.1238C6.39469 10.1237 6.96875 9.55056 6.96875 9.55056L6.89746 9.65212C7.1134 9.41268 7.33359 9.17412 7.5586 8.93728L8.23828 8.23903C9.02789 7.44943 9.83794 6.712 10.6563 6.02614C11.4739 6.51582 13.0223 7.44139 14.0977 8.16189C13.0404 8.9782 11.9805 9.90701 10.9434 10.9441C10.1573 11.7302 9.43503 12.5306 8.77539 13.3318C8.59422 13.8831 8.39776 14.598 8.40235 15.0955C8.40633 15.5174 8.56005 16.104 8.71875 16.6013C9.39333 17.4255 10.1349 18.249 10.9434 19.0574C11.9647 20.0787 13.0095 20.9934 14.0508 21.8006C12.9422 22.6371 11.5764 23.3519 10.4717 23.8181C9.7167 23.1767 8.96918 22.4914 8.23926 21.7615C7.77495 21.2972 7.32824 20.8258 6.89942 20.3504L6.96875 20.45C6.96875 20.45 6.39469 19.8768 5.62988 19.8767C5.08466 19.8767 4.73374 20.1683 4.57715 20.3357C4.50924 20.5192 4.4456 20.7006 4.38672 20.8797C3.33567 24.0758 4.01105 25.3762 4.31641 25.6824C4.62147 25.9875 5.9214 26.6645 9.11914 25.6131C9.86816 25.3667 10.6581 25.0405 11.4746 24.6375C11.4721 24.6355 11.4694 24.6336 11.4668 24.6316C11.5566 24.5903 11.6464 24.5456 11.7383 24.5017C14.0832 23.3044 16.6338 21.4802 19.0566 19.0574C19.8649 18.2491 20.6058 17.4255 21.2803 16.6013C21.439 16.104 21.5937 15.5175 21.5977 15.0955C21.6023 14.5969 21.4032 13.8807 21.2217 13.3289C20.5628 12.5286 19.8417 11.7292 19.0566 10.9441C15.6928 7.58029 12.0863 5.36306 9.12012 4.38747Z" fill="#2081FF"/>
<path d="M41.679 7.22014H50.319V9.66013H43.319L44.439 8.54013V19.6801L43.319 18.5601H50.499V21.0001H41.679V7.22014ZM43.599 12.9801H49.579V15.4601H43.599V12.9801ZM55.1634 7.22014H57.7234L63.1234 16.5801H62.6834V7.22014H65.4434V21.0001H62.9634L57.4834 11.5601H57.9234V21.0001H55.1634V7.22014ZM70.7962 7.22014H73.5562V21.0001H70.7962V7.22014ZM85.269 21.2401C83.909 21.2401 82.6824 20.9201 81.589 20.2801C80.4957 19.6401 79.6357 18.7801 79.009 17.7001C78.3957 16.6068 78.089 15.4135 78.089 14.1201C78.089 12.8268 78.4024 11.6335 79.029 10.5401C79.6557 9.4468 80.5024 8.58013 81.569 7.94013C82.649 7.30013 83.8357 6.98013 85.129 6.98013C86.1424 6.98013 87.089 7.17347 87.969 7.56013C88.8624 7.9468 89.6157 8.4868 90.229 9.18014L88.209 10.9001C87.809 10.4735 87.3424 10.1401 86.809 9.90014C86.289 9.66014 85.729 9.54014 85.129 9.54014C84.3424 9.54014 83.6224 9.7468 82.969 10.1601C82.3157 10.5735 81.7957 11.1335 81.409 11.8401C81.0357 12.5468 80.849 13.3068 80.849 14.1201C80.849 14.9468 81.0357 15.7135 81.409 16.4201C81.7957 17.1268 82.3157 17.6935 82.969 18.1201C83.6357 18.5468 84.3824 18.7601 85.209 18.7601C85.809 18.7601 86.389 18.6468 86.949 18.4201C87.509 18.1935 87.9557 17.8735 88.289 17.4601C88.6357 17.0335 88.809 16.5668 88.809 16.0601H84.909V13.8001H91.809C91.809 15.4535 91.529 16.8401 90.969 17.9601C90.4224 19.0668 89.6557 19.8935 88.669 20.4401C87.6824 20.9735 86.549 21.2401 85.269 21.2401ZM97.0453 7.22014H99.4053L104.045 17.1201H103.285L107.905 7.22014H110.285L111.965 21.0001H109.165L108.045 11.5001L108.545 11.6001L104.765 19.4401H102.585L98.7853 11.6001L99.2853 11.5001L98.1653 21.0001H95.3653L97.0453 7.22014ZM119.941 7.22014H122.921L128.041 21.0001H125.141L121.081 9.02013H121.761L117.741 21.0001H114.801L119.941 7.22014ZM118.681 15.3001H124.001L124.861 17.7001H117.821L118.681 15.3001Z" fill="black" fill-opacity="0.75"/>
</svg>
