<svg width="30" height="30" viewBox="0 0 30 30" fill="none" xmlns="http://www.w3.org/2000/svg">
<path fill-rule="evenodd" clip-rule="evenodd" d="M16.127 2.29372C21.0683 -0.335566 25.7047 -0.819537 28.207 1.44314L28.3857 1.61306C30.6276 3.85491 30.452 8.00134 28.3555 12.5584L28.3857 12.5144C28.3778 12.5338 27.7084 14.1815 27.7168 15.0955C27.7225 15.695 28.0294 16.6266 28.2256 17.1629C30.4447 21.829 30.6742 26.0999 28.3867 28.3875L28.208 28.5574C25.7068 30.8194 21.0739 30.3352 16.1348 27.7088C17.447 26.8537 18.9451 25.7826 19.7236 25.1824C20.1181 25.3456 20.5042 25.4895 20.8799 25.6131C24.0768 26.6643 25.377 25.9886 25.6826 25.6834C25.9877 25.3782 26.6647 24.0782 25.6133 20.8806C25.5545 20.702 25.4906 20.5208 25.4229 20.3377C25.2668 20.1704 24.9166 19.8767 24.3701 19.8767C23.6085 19.8767 23.0362 20.4451 23.0313 20.45L23.0908 20.3621C22.6651 20.8337 22.2214 21.3008 21.7607 21.7615C20.7095 22.8127 19.6235 23.7718 18.5264 24.6375C18.5293 24.6389 18.5323 24.6409 18.5352 24.6424C18.4835 24.6806 18.4295 24.7186 18.375 24.7586C17.2881 25.6064 16.189 26.3587 15.0977 27.0115C15.0662 27.0314 15.0359 27.0525 15.0049 27.072C15.0034 27.0711 15.0015 27.07 15 27.0691C9.64531 30.2441 4.48414 30.9918 1.79199 28.5574L1.61231 28.3865C-0.673885 26.0995 -0.445731 21.8307 1.77149 17.1668C1.96764 16.6312 2.27753 15.6966 2.28321 15.0955C2.29162 14.1826 1.62374 12.5377 1.61426 12.5144L1.64356 12.5584C-0.452904 8.00186 -0.628197 3.85591 1.61328 1.61403L1.79199 1.44314C5.05198 -1.50495 11.9336 0.210463 18.3936 5.25661C18.4407 5.29105 18.4879 5.32382 18.5332 5.3572C18.5307 5.35842 18.5279 5.3589 18.5254 5.36013C19.6233 6.22625 20.7098 7.18713 21.7617 8.23903L22.4414 8.93728C22.665 9.17259 22.884 9.40935 23.0986 9.64724L23.0313 9.55056C23.0352 9.55447 23.6078 10.1238 24.3701 10.1238C24.915 10.1238 25.2642 9.83132 25.4209 9.66384C25.4889 9.48018 25.5534 9.29907 25.6123 9.11989C26.6639 5.92184 25.9867 4.62223 25.6816 4.31716C25.3755 4.01179 24.0751 3.33637 20.8789 4.38747C20.5036 4.51092 20.1176 4.65416 19.7236 4.81716C18.8379 4.13555 17.2001 2.99282 16.127 2.29372ZM9.12012 4.38747C5.9223 3.33591 4.62258 4.01303 4.31738 4.31814C4.01216 4.62378 3.33627 5.92367 4.3877 9.12087C4.44647 9.29956 4.50939 9.4807 4.57715 9.66384C4.7335 9.83118 5.08408 10.1238 5.62988 10.1238C6.39469 10.1237 6.96875 9.55056 6.96875 9.55056L6.89746 9.65212C7.1134 9.41268 7.33359 9.17412 7.5586 8.93728L8.23828 8.23903C9.02789 7.44943 9.83794 6.712 10.6563 6.02614C11.4739 6.51582 13.0223 7.44139 14.0977 8.16189C13.0404 8.9782 11.9805 9.90701 10.9434 10.9441C10.1573 11.7302 9.43503 12.5306 8.77539 13.3318C8.59422 13.8831 8.39776 14.598 8.40235 15.0955C8.40633 15.5174 8.56005 16.104 8.71875 16.6013C9.39333 17.4255 10.1349 18.249 10.9434 19.0574C11.9647 20.0787 13.0095 20.9934 14.0508 21.8006C12.9422 22.6371 11.5764 23.3519 10.4717 23.8181C9.7167 23.1767 8.96918 22.4914 8.23926 21.7615C7.77495 21.2972 7.32824 20.8258 6.89942 20.3504L6.96875 20.45C6.96875 20.45 6.39469 19.8768 5.62988 19.8767C5.08466 19.8767 4.73374 20.1683 4.57715 20.3357C4.50924 20.5192 4.4456 20.7006 4.38672 20.8797C3.33567 24.0758 4.01105 25.3762 4.31641 25.6824C4.62147 25.9875 5.9214 26.6645 9.11914 25.6131C9.86816 25.3667 10.6581 25.0405 11.4746 24.6375C11.4721 24.6355 11.4694 24.6336 11.4668 24.6316C11.5566 24.5903 11.6464 24.5456 11.7383 24.5017C14.0832 23.3044 16.6338 21.4802 19.0566 19.0574C19.8649 18.2491 20.6058 17.4255 21.2803 16.6013C21.439 16.104 21.5937 15.5175 21.5977 15.0955C21.6023 14.5969 21.4032 13.8807 21.2217 13.3289C20.5628 12.5286 19.8417 11.7292 19.0566 10.9441C15.6928 7.58029 12.0863 5.36306 9.12012 4.38747Z" fill="#2081FF"/>
</svg>
