<svg width="148" height="148" viewBox="0 0 148 148" fill="none" xmlns="http://www.w3.org/2000/svg">
<path fill-rule="evenodd" clip-rule="evenodd" d="M7.91132 7.91103C23.4919 -7.66907 57.8449 0.548665 90.0764 25.6874C90.3449 25.8833 90.6096 26.0736 90.8664 26.2626C90.8555 26.268 90.8441 26.2728 90.8332 26.2782C96.2135 30.5232 101.531 35.2384 106.686 40.3935C108.96 42.6674 111.148 44.9733 113.248 47.3017L112.914 46.8212C112.933 46.8401 115.74 49.6336 119.477 49.6337C122.15 49.6337 123.869 48.2025 124.637 47.3817C124.97 46.4812 125.283 45.5913 125.571 44.7128C130.728 29.0336 127.405 22.6645 125.909 21.1688C124.413 19.673 118.043 16.351 102.365 21.5067C100.526 22.1117 98.6356 22.8143 96.7043 23.6132C92.3631 20.2718 84.3349 14.6691 79.0734 11.2411C103.886 -1.95986 127.131 -4.12628 139.168 7.91103C150.15 18.8929 149.308 39.2012 139.052 61.5194L139.164 61.3524C139.14 61.4123 135.841 69.5182 135.883 74.0087C135.91 76.8981 137.363 81.3598 138.326 84.0077C149.263 106.933 150.404 127.932 139.168 139.168C127.136 151.2 103.907 149.04 79.1066 135.854C85.541 131.661 92.8887 126.407 96.7053 123.465C98.6366 124.264 100.527 124.967 102.366 125.572C118.045 130.728 124.414 127.405 125.909 125.909C127.405 124.413 130.728 118.044 125.572 102.366C125.284 101.488 124.971 100.598 124.638 99.6981C123.871 98.8775 122.151 97.4462 119.477 97.4462C115.727 97.4463 112.914 100.259 112.914 100.259L113.255 99.7685C111.152 102.1 108.961 104.408 106.685 106.684C101.53 111.839 96.2136 116.553 90.8342 120.798C90.8472 120.804 90.8602 120.811 90.8732 120.817C90.5367 121.067 90.1852 121.322 89.8244 121.586C84.6036 125.642 79.3286 129.254 74.0881 132.392C73.9089 132.506 73.7322 132.62 73.5558 132.731C73.5503 132.728 73.5448 132.725 73.5392 132.722C46.6956 148.638 20.8404 152.097 7.91132 139.168C-3.32288 127.934 -2.1855 106.939 8.74725 84.0165C9.71031 81.3698 11.1681 76.9015 11.1955 74.0087C11.2379 69.5157 7.93488 61.4031 7.91425 61.3524L8.02167 61.5145C-2.231 39.1985 -3.06941 18.8918 7.91132 7.91103ZM44.7131 21.5067C29.0348 16.3509 22.6652 19.6731 21.1691 21.1688C19.6735 22.6645 16.351 29.0339 21.507 44.7128C21.7958 45.591 22.1075 46.4807 22.4406 47.3808C23.2075 48.2013 24.9271 49.6336 27.6017 49.6337C31.332 49.6337 34.1349 46.8504 34.1642 46.8212L33.8264 47.3065C35.9281 44.9765 38.1182 42.669 40.3937 40.3935C44.2643 36.5229 48.2272 32.901 52.2385 29.539C56.2449 31.9386 63.8435 36.4795 69.1193 40.0145C63.9355 44.0169 58.7374 48.5674 53.6525 53.6522C49.803 57.5018 46.2615 61.4179 43.0305 65.3417C42.1404 68.0478 41.1724 71.564 41.1955 74.0087C41.2151 76.0774 41.9672 78.9516 42.7453 81.3895C46.0528 85.4299 49.6893 89.4634 53.6525 93.4267C58.6605 98.4346 63.7792 102.923 68.8849 106.881C63.4494 110.982 56.7572 114.494 51.341 116.779C47.6368 113.633 43.9749 110.267 40.3937 106.685C38.1181 104.41 35.9282 102.103 33.8264 99.7724L34.1642 100.259C34.1642 100.259 31.3517 97.4462 27.6017 97.4462C24.9267 97.4462 23.2064 98.8777 22.4396 99.6981C22.1067 100.598 21.7957 101.487 21.507 102.365C16.3511 118.043 19.6733 124.413 21.1691 125.909C22.6648 127.405 29.0338 130.728 44.7131 125.572C48.3807 124.366 52.247 122.771 56.2443 120.798C56.2347 120.79 56.2247 120.783 56.215 120.775C56.5764 120.609 56.9414 120.438 57.3098 120.264C68.8725 114.394 81.4628 105.391 93.4269 93.4267C97.3895 89.4641 101.025 85.4312 104.332 81.3915C105.111 78.9531 105.863 76.078 105.883 74.0087C105.906 71.5636 104.936 68.047 104.046 65.3407C100.815 61.4175 97.2758 57.5011 93.4269 53.6522C76.9348 37.1601 59.2554 26.2891 44.7131 21.5067Z" fill="white"/>
</svg>
